# xmcd
#
# Track frame offsets:
#	150
#	12700
#	24767
#	39765
#	51748
#	68560
#	83114
#	101512
#	112715
#	127830
#	139932
#	151890
#	161878
#	171496
#	186764
#	202160
#	216482
#	233079
#	245689
#	258487
#	267104
#
# Disc length: 3760 seconds
#
# Revision: 1
# Processed by: cddbd v1.5.2PL0 Copyright (c) Steve Scherf et al.
# Submitted via: audiograbber 1.80
#
DISCID=280eae15
DTITLE=Rundherum und wild vergnügt! - Beliebte Spiel-,Tanz- und Bewegungslieder
DYEAR=1900
DGENRE=
TTITLE0=Samba der Tiefe
TTITLE1=Waldbodenfüße
TTITLE2=Rumba-Ritter
TTITLE3=Tanz der sieben Zwerge
TTITLE4=Ich fliege
TTITLE5=Das Glitzerding
TTITLE6=Das Drachenei
TTITLE7=Frankie-Frosch
TTITLE8=Sachensucher
TTITLE9=Windmühlenflügel
TTITLE10=Zack,Brumm und Zisch
TTITLE11=Drachenkinderparty
TTITLE12=Wasserachterbahn
TTITLE13=Warum muss ich regnen?
TTITLE14=Geistertanz
TTITLE15=Riesenschlange
TTITLE16=Trag mich
TTITLE17=Unser Raumschiff
TTITLE18=Olympische Spiele bei der Müllabfuhr
TTITLE19=Muschelhüpfer
TTITLE20=Eine Nacht am Strand
EXTD=
EXTT0=
EXTT1=
EXTT2=
EXTT3=
EXTT4=
EXTT5=
EXTT6=
EXTT7=
EXTT8=
EXTT9=
EXTT10=
EXTT11=
EXTT12=
EXTT13=
EXTT14=
EXTT15=
EXTT16=
EXTT17=
EXTT18=
EXTT19=
EXTT20=
PLAYORDER=
